<?xml version="1.0" encoding="utf-8"?>
<!-- Generator: Adobe Illustrator 23.0.1, SVG Export Plug-In . SVG Version: 6.00 Build 0)  -->
<svg version="1.1" id="Layer_1" xmlns="http://www.w3.org/2000/svg" xmlns:xlink="http://www.w3.org/1999/xlink" x="0px" y="0px"
	 viewBox="0 0 1000 600" style="enable-background:new 0 0 1000 600;" xml:space="preserve">
<style type="text/css">
	.st0{fill:#FFFFFF;}
	.st1{fill:none;}
	.st2{font-family:'ChaparralPro-Regular';}
	.st3{font-size:58px;}
	.st4{letter-spacing:-1;}
</style>
<path class="st0" d="M234.49,376.07h-13.22c-1.52,4.77-5.98,8.22-11.26,8.22c-6.53,0-11.82-5.29-11.82-11.82
	c0-6.53,5.29-11.82,11.82-11.82c5.27,0,9.73,3.45,11.26,8.22h19.29c5.96-7.37,11.76-15.49,16.65-24.09H235.7
	c-1.52,4.77-5.98,8.22-11.26,8.22c-6.53,0-11.82-5.29-11.82-11.82c0-6.53,5.29-11.82,11.82-11.82c5.27,0,9.73,3.45,11.26,8.22h25.33
	c3.83-7.8,6.77-15.9,8.33-24.09h-51.48c-1.52,4.77-5.98,8.22-11.26,8.22c-6.53,0-11.82-5.29-11.82-11.82
	c0-6.53,5.29-11.82,11.82-11.82c5.27,0,9.73,3.45,11.26,8.22h52.47c0.15-1.77,0.23-3.54,0.23-5.31c0-10.01-1.35-19.82-3.56-29.47
	H235.3c-1.47,4.85-5.98,8.38-11.31,8.38c-6.53,0-11.82-5.29-11.82-11.82c0-6.53,5.29-11.82,11.82-11.82c5.21,0,9.62,3.38,11.2,8.05
	h30.01c-2.22-8.12-4.97-16.14-7.97-24.09h-48.15c-1.52,4.77-5.98,8.22-11.26,8.22c-6.53,0-11.82-5.29-11.82-11.82
	c0-6.53,5.29-11.82,11.82-11.82c5.27,0,9.73,3.45,11.26,8.22h45.36c-3.21-8.11-6.58-16.15-9.8-24.15h-17.03
	c-1.52,4.77-5.98,8.22-11.26,8.22c-6.53,0-11.82-5.29-11.82-11.82c0-6.53,5.29-11.82,11.82-11.82c5.27,0,9.73,3.45,11.26,8.22h14.17
	c-10.9-28.01-18.77-55.59-9.89-83.97c-34.04,25.53-116.18,116.32-116.18,189.51c0,61.99,38.16,89.93,62.27,100.71
	c-11.35-31.21-12.2-79.15-6.53-110.08c1.92,87.88,37.45,143.3,37.45,143.3l7.87-2.87c-8.44-15.46-13.83-31.77-13.83-31.77
	S218.38,394.42,234.49,376.07z"/>
<g>
	<path class="st0" d="M353.13,335.82h-52.67V186.96h43.98c9.35,0,17.09,0.45,23.21,1.34c6.12,0.89,10.86,2.27,14.2,4.12
		c6.01,3.19,10.74,7.67,14.2,13.42c3.45,5.75,5.18,12.08,5.18,18.98c0,8.31-2.19,15.2-6.57,20.65c-4.38,5.46-10.76,9.26-19.15,11.41
		c10.02,2.67,17.68,7.35,22.99,14.03c5.31,6.68,7.96,15.03,7.96,25.05c0,13.51-4.36,23.53-13.08,30.06
		C384.65,332.56,371.24,335.82,353.13,335.82z M328.07,196.53v56.56h13.7c11.65,0,20.11-2.26,25.39-6.79
		c5.27-4.53,7.91-11.76,7.91-21.71c0-9.58-2.91-16.65-8.74-21.21c-5.83-4.57-14.79-6.85-26.89-6.85H328.07z M328.07,262.45v63.8
		h17.59c11.8,0,20.41-2.28,25.83-6.85c5.42-4.57,8.13-11.78,8.13-21.66c0-11.95-3.16-20.82-9.46-26.61
		c-6.31-5.79-15.92-8.68-28.84-8.68H328.07z"/>
	<path class="st0" d="M425.23,210.34c0-3.52,1.24-6.51,3.73-8.99c2.49-2.47,5.51-3.71,9.07-3.71c3.41,0,6.35,1.22,8.8,3.65
		c2.45,2.43,3.67,5.45,3.67,9.04c0,3.44-1.21,6.4-3.62,8.87c-2.41,2.47-5.36,3.71-8.85,3.71c-3.56,0-6.59-1.24-9.07-3.71
		C426.47,216.74,425.23,213.78,425.23,210.34z M427.01,238.17h21.71v97.65h-21.71V238.17z"/>
	<path class="st0" d="M515.92,339.05c-14.7,0-27-5.05-36.91-15.14c-9.91-10.09-14.86-22.79-14.86-38.08
		c0-14.92,4.23-27.07,12.69-36.46c8.46-9.39,19.52-14.08,33.18-14.08c14.85,0,27.22,5.05,37.13,15.14
		c9.91,10.1,14.86,22.75,14.86,37.97c0,14.99-4.25,27.19-12.75,36.58C540.77,334.36,529.65,339.05,515.92,339.05z M513.03,331.7
		c7.79,0,14.1-4.06,18.93-12.19c4.82-8.13,7.24-18.87,7.24-32.23c0-13.43-2.41-24.25-7.24-32.46c-4.83-8.2-11.13-12.3-18.93-12.3
		s-14.12,4.12-18.98,12.36c-4.86,8.24-7.29,19.04-7.29,32.4c0,13.29,2.43,24.01,7.29,32.18C498.9,327.62,505.23,331.7,513.03,331.7z
		"/>
	<path class="st0" d="M586.91,335.82h-9.35v-80.95c0-6.9,1.13-11.89,3.4-14.98c2.26-3.08,5.85-4.62,10.74-4.62
		c3.93,0,7.64,1.36,11.13,4.06c3.49,2.71,6.79,6.81,9.91,12.3l25.5,45.43c0.07,0.15,0.24,0.3,0.5,0.45
		c0.26,0.15,0.54,0.22,0.84,0.22c0.59,0,1.02-0.18,1.28-0.56c0.26-0.37,0.39-1.11,0.39-2.23v-56.78h9.35v89.41
		c0,4.53-0.54,7.57-1.61,9.13c-1.08,1.56-2.91,2.34-5.51,2.34c-1.86,0-3.43-0.46-4.73-1.39c-1.3-0.93-2.54-2.47-3.73-4.62
		l-44.87-77.05c-0.3-0.52-0.56-0.87-0.78-1.06c-0.22-0.18-0.48-0.28-0.78-0.28c-0.67,0-1.11,0.15-1.34,0.45
		c-0.22,0.3-0.33,1.04-0.33,2.23V335.82z"/>
	<path class="st0" d="M672.71,210.34c0-3.52,1.24-6.51,3.73-8.99c2.49-2.47,5.51-3.71,9.07-3.71c3.41,0,6.35,1.22,8.8,3.65
		c2.45,2.43,3.67,5.45,3.67,9.04c0,3.44-1.21,6.4-3.62,8.87c-2.41,2.47-5.36,3.71-8.85,3.71c-3.56,0-6.59-1.24-9.07-3.71
		C673.95,216.74,672.71,213.78,672.71,210.34z M674.49,238.17h21.71v97.65h-21.71V238.17z"/>
	<path class="st0" d="M797.69,314.33c-4.16,7.87-9.61,13.96-16.37,18.26c-6.76,4.3-14.25,6.46-22.49,6.46
		c-13.36,0-24.57-4.95-33.63-14.86c-9.06-9.91-13.58-22.44-13.58-37.58c0-14.4,4.58-26.56,13.75-36.46
		c9.17-9.91,20.5-14.86,34.02-14.86c8.61,0,16.09,1.88,22.44,5.62c6.35,3.75,11.15,9.15,14.42,16.2l-8.13,4.34
		c-2.89-6.09-6.4-10.63-10.52-13.64c-4.12-3.01-9-4.51-14.64-4.51c-9.2,0-16.26,3.71-21.16,11.13c-4.9,7.42-7.35,18.22-7.35,32.4
		c0,12.92,2.58,23.36,7.74,31.34c5.16,7.98,11.78,11.97,19.87,11.97c5.71,0,10.93-1.76,15.64-5.29c4.71-3.52,8.78-8.7,12.19-15.53
		L797.69,314.33z"/>
	<path class="st0" d="M807.44,334.04v-8.02c3.49,0.89,6.9,1.58,10.24,2.06c3.34,0.48,6.68,0.72,10.02,0.72
		c7.42,0,12.97-1.22,16.65-3.67c3.67-2.45,5.51-6.2,5.51-11.25c0-6.53-5.2-12.58-15.59-18.15l-1.22-0.67l-6.24-3.45
		c-8.09-4.38-13.73-8.55-16.92-12.53c-3.19-3.97-4.79-8.63-4.79-13.97c0-9.2,3.3-16.37,9.91-21.49c6.61-5.12,15.92-7.68,27.95-7.68
		c2.6,0,5.47,0.15,8.63,0.45c3.15,0.3,6.81,0.74,10.97,1.34v8.24c-6.38-0.74-10.74-1.22-13.08-1.45c-2.34-0.22-4.03-0.33-5.07-0.33
		c-6.38,0-11.26,1.11-14.64,3.34c-3.38,2.23-5.07,5.42-5.07,9.58c0,5.2,4.6,10.43,13.81,15.7l1.34,0.78l9.8,5.9
		c8.76,5.12,14.51,9.59,17.26,13.42c2.75,3.82,4.12,8.56,4.12,14.2c0,9.35-3.45,16.63-10.35,21.82c-6.9,5.2-16.66,7.79-29.28,7.79
		c-3.49,0-7.2-0.22-11.13-0.67C816.31,335.6,812.05,334.93,807.44,334.04z"/>
</g>
<rect x="308.46" y="353.39" class="st1" width="554.55" height="56.85"/>
<text transform="matrix(1 0 0 1 367.4908 393.9878)" class="st0 st2 st3 st4">Inspire Your Future</text>
</svg>
